PathFileType	3	(X/Y/Z)	D:\minhoCalibration\240510\subject5_KPNP\preferred\preferred20.trc
DataRate	CameraRate	NumFrames	NumMarkers	Units	OrigDataRate	OrigDataStartFrame	OrigNumFrames
200.0	200.0	21	10	mm	200.0	173	131	
Frame#	Time	Left_Ankle_Outer1			Left_Ankle_Inner1			Left_Knee_Outer1			Left_Knee_Inner1			Left_Wrist1			Right_Wrist1			Right_Knee_Inner1			Right_Knee_Outer1			Right_Ankle_Inner1			Right_Ankle_Outer1			
		X1	Y1	Z1	X2	Y2	Z2	X3	Y3	Z3	X4	Y4	Z4	X5	Y5	Z5	X6	Y6	Z6	X7	Y7	Z7	X8	Y8	Z8	X9	Y9	Z9	X10	Y10	Z10	
173	0.855	-149.44106	98.427216	-730.13983	-191.11555	115.20046	-702.03076	53.057613	521.72229	-627.15009	-12.03525	512.41895	-558.01642	28.029541	953.54395	-822.30499	-120.71004	1186.6526	-625.04761	-168.62822	956.46753	-147.88913	-166.65556	1050.7714	-166.11668	-599.28448	882.79834	-315.23892	-585.5144	978.44031	-337.31274
174	0.86	-152.31528	96.444778	-728.98785	-192.24693	114.13463	-702.57458	50.372955	520.43134	-627.83704	-13.66207	511.1456	-559.8634	23.581942	951.96844	-821.48291	-116.78139	1187.6603	-622.36237	-161.88448	965.01245	-143.72746	-158.79871	1058.3938	-163.51579	-604.56104	895.66699	-277.24973	-590.56256	990.51538	-303.50797
175	0.865	-153.51942	95.66317	-729.48547	-194.19128	112.90331	-701.53516	48.96225	519.93597	-628.78741	-15.256767	510.80786	-558.77094	20.199133	950.78894	-822.90881	-113.12029	1188.8025	-619.53143	-155.60747	972.89557	-140.08951	-151.65236	1065.5416	-162.00742	-608.24121	908.69702	-238.00676	-594.49805	1002.2089	-267.64804
176	0.87	-154.90881	94.793892	-729.39648	-195.63916	111.99752	-700.92023	46.791271	519.1095	-629.18683	-16.556311	510.16061	-559.18658	16.754358	949.62677	-823.01221	-110.06074	1189.3424	-617.70288	-150.07909	980.46698	-137.12648	-146.24625	1072.2511	-160.93698	-609.85968	921.65857	-197.12361	-597.22571	1013.9528	-230.3502
177	0.875	-156.495	93.996056	-729.09357	-196.72939	111.19514	-700.57562	45.155365	518.56616	-629.60382	-18.118431	509.70029	-559.07141	13.108613	948.18823	-821.42047	-107.65319	1189.5814	-616.25983	-145.12595	987.26642	-135.0732	-142.09906	1078.3632	-160.73389	-609.21008	934.22174	-155.11729	-598.33398	1025.5642	-191.28795
178	0.88	-157.87822	93.224045	-728.69061	-198.01801	110.35812	-699.76813	43.671719	518.20697	-629.86346	-19.339148	509.36758	-558.92108	11.074375	947.95807	-822.58423	-105.36254	1188.8982	-615.68298	-141.0867	993.11035	-134.01884	-139.17001	1083.6324	-161.26562	-605.98895	946.50641	-112.22626	-597.55499	1037.2264	-150.976
179	0.885	-159.21056	92.630783	-727.92255	-199.13808	109.51028	-698.65509	41.644566	517.57458	-629.34357	-20.351154	509.10406	-558.81165	8.8182354	947.14258	-821.92291	-103.61359	1190.3458	-612.82477	-138.23431	997.80951	-134.16158	-138.18054	1087.7714	-162.03384	-600.1546	959.06445	-71.07618	-594.29425	1048.7686	-109.33961
180	0.89	-159.98965	92.262726	-727.81573	-200.11937	108.91512	-698.24701	40.555599	517.48151	-629.20221	-21.68334	508.91537	-557.98706	6.6198506	946.31696	-820.52844	-102.46048	1189.2365	-613.26825	-137.05733	1001.0475	-135.42021	-138.28358	1090.8796	-163.54807	-591.95892	970.46442	-25.62167	-588.37762	1060.2542	-66.940125
181	0.895	-161.01965	91.915222	-727.12305	-200.83867	108.70261	-697.28046	39.453594	517.47101	-628.59589	-22.606922	508.78717	-557.3042	5.3506627	945.89062	-819.66504	-100.94798	1190.9639	-608.97736	-137.74893	1003.0708	-137.51315	-138.96643	1092.665	-164.86842	-579.38153	981.4574	17.712708	-579.30884	1071.3521	-24.144754
182	0.9	-161.45753	92.029968	-726.80334	-200.74651	108.5647	-697.461	38.323776	517.41113	-627.41632	-23.768959	508.78757	-556.12073	4.6434822	945.61292	-818.78223	-101.81022	1190.1614	-611.13275	-140.70111	1003.6092	-140.12642	-141.26653	1092.9177	-166.64587	-563.77771	991.61316	61.219135	-566.66376	1081.9465	18.411226
183	0.905	-161.59021	92.437126	-726.66937	-201.69911	108.52117	-696.12286	37.626678	517.59088	-626.1842	-24.657185	508.78006	-554.92139	4.9810753	945.68433	-818.52893	-102.63554	1190.3391	-610.23547	-145.72198	1003.2437	-143.39224	-145.06223	1091.587	-168.53516	-546.08978	1001.798	103.43931	-550.3869	1091.9564	59.811096
184	0.91	-161.84848	92.531845	-726.12561	-202.20499	108.76808	-695.55029	36.662167	517.66827	-624.49207	-25.498077	508.88431	-553.6684	5.243813	945.53577	-816.72546	-103.92589	1192.009	-609.26184	-152.79482	1001.6345	-146.20535	-149.70364	1089.6644	-170.49661	-522.19958	1010.8173	141.73132	-530.09729	1100.8928	99.248886
185	0.915	-161.34583	93.003281	-726.17993	-202.26306	108.72798	-695.2124	36.079235	518.07007	-622.75519	-26.722422	509.13376	-551.9646	5.7231812	946.04877	-814.67371	-105.5015	1191.5457	-610.39886	-160.76735	1000.2587	-148.6785	-155.44414	1087.0668	-172.35966	-496.22525	1019.8657	178.73703	-506.12015	1108.3191	135.70467
186	0.92	-161.24603	93.160301	-725.68091	-201.73485	109.27842	-695.23022	35.340214	518.44116	-620.76245	-27.57238	509.47845	-550.33008	6.2615762	946.66541	-811.61627	-107.81705	1193.1615	-609.4649	-170.84221	999.29004	-150.69133	-161.46843	1085.3644	-174.07068	-463.04263	1024.1974	208.77094	-478.39679	1113.825	168.10612
187	0.925	-160.59447	93.414177	-725.64948	-201.20786	109.19888	-695.61536	35.020168	519.12024	-618.70941	-28.751526	509.76981	-548.48651	7.3862343	947.4444	-808.61951	-110.58173	1193.5332	-607.84668	-181.00497	999.39301	-152.86301	-167.33589	1085.4049	-175.70728	-441.26862	1028.0431	228.08076	-450.73157	1118.8068	189.96466
188	0.93	-159.564	93.571098	-725.7774	-199.97882	109.40697	-696.23669	34.132027	519.49249	-616.21155	-29.697157	510.21588	-546.80432	8.8790131	948.39044	-805.3446	-113.89984	1194.2095	-607.81909	-189.14632	999.66791	-153.76257	-171.06381	1086.6431	-175.93384	-427.07321	1028.755	232.29507	-437.96445	1122.5536	197.94569
189	0.935	-158.13698	94.015442	-726.21161	-198.70689	109.77395	-697.56805	33.513149	520.03046	-613.72339	-31.083189	510.42725	-544.94171	9.9769506	949.22565	-800.81006	-117.31719	1194.313	-607.43683	-191.40849	1001.3939	-152.65894	-169.24396	1088.1165	-173.99989	-423.74203	1029.4647	234.24265	-434.06836	1123.5647	200.45184
190	0.94	-156.50391	94.234406	-726.6181	-197.64233	109.83677	-697.63049	32.632431	520.70996	-610.89557	-32.651608	510.63245	-543.37164	11.210573	949.65393	-796.42834	-120.76727	1195.076	-606.40802	-189.83122	1003.4112	-149.78935	-165.26318	1089.1367	-171.70114	-424.84195	1027.8313	233.87706	-437.18552	1122.5603	199.4048
191	0.945	-153.9545	94.550621	-727.94305	-195.68857	109.84853	-699.61194	31.825535	521.43182	-608.02441	-34.661404	510.02872	-543.23987	12.721324	950.14087	-792.74805	-125.63962	1194.8838	-606.242	-187.36761	1004.6116	-148.27582	-162.49034	1089.8158	-169.29553	-427.22983	1023.5797	232.98918	-443.46237	1117.7119	197.70885
192	0.95	-151.8679	94.232819	-728.58826	-193.91797	109.63082	-701.01715	30.746723	521.92529	-604.80341	-36.96328	510.24939	-541.30267	14.090386	950.95947	-789.04315	-128.82056	1194.2786	-604.71454	-185.97218	1005.2214	-147.97899	-162.37112	1089.5361	-166.5121	-429.45535	1019.0175	233.88782	-449.15326	1110.9535	196.68333
193	0.955	-149.96999	93.834755	-729.02185	-192.67755	109.21316	-701.83832	29.484251	522.3905	-601.45135	-39.403957	510.26349	-539.60785	15.421869	951.49341	-785.94006	-132.68713	1193.9294	-604.19073	-185.91721	1006.6912	-147.50049	-163.4101	1090.2194	-164.58472	-431.67041	1013.106	233.14838	-454.88968	1104.0217	196.51746
